<svg width="500" height="500" viewBox="0 0 500 500" fill="none" xmlns="http://www.w3.org/2000/svg">
<path d="M276.04 373.76C268.68 373.76 260.093 372.84 250.28 371C251.507 355.973 252.58 334.507 253.5 306.6C254.727 278.693 255.34 253.853 255.34 232.08C255.34 181.48 252.733 150.353 247.52 138.7C257.027 135.02 269.447 132.107 284.78 129.96C300.42 127.507 316.213 126.28 332.16 126.28C362.827 126.28 386.44 133.333 403 147.44C419.56 161.24 427.84 181.173 427.84 207.24C427.84 222.88 423.7 236.833 415.42 249.1C407.447 261.06 395.947 270.567 380.92 277.62C404.533 323.927 423.393 352.753 437.5 364.1C429.22 367.78 420.633 370.233 411.74 371.46C403.153 372.993 393.493 373.76 382.76 373.76C376.32 357.2 361.907 328.527 339.52 287.74C338.293 288.047 335.533 288.2 331.24 288.2C325.107 288.2 318.36 287.893 311 287.28C303.947 286.667 298.427 285.747 294.44 284.52C294.747 328.68 297.2 357.507 301.8 371C293.52 372.84 284.933 373.76 276.04 373.76ZM344.58 264.74C356.233 259.833 365.74 252.627 373.1 243.12C380.46 233.613 384.14 222.88 384.14 210.92C384.14 174.427 363.593 156.18 322.5 156.18C313.607 156.18 305.327 157.253 297.66 159.4C296.127 181.787 295.053 213.067 294.44 253.24C315.907 260.907 332.62 264.74 344.58 264.74Z" fill="black"/>
<path d="M97 373.7C92.2 373.7 86.35 372.8 79.45 371C81.85 339.2 83.05 293.9 83.05 235.1C83.05 181.7 81.4 147.95 78.1 133.85C87.4 132.05 95.05 131.15 101.05 131.15C107.95 131.15 116.65 132.05 127.15 133.85C138.85 155.15 155.5 184.55 177.1 222.05C198.7 259.55 217.9 292.1 234.7 319.7C235.3 284.3 235.6 256.4 235.6 236C235.6 180.2 233.95 146.15 230.65 133.85C236.65 132.05 242.5 131.15 248.2 131.15C253.6 131.15 259.6 132.05 266.2 133.85C265.3 149.45 264.4 170.45 263.5 196.85C262.9 222.95 262.6 247.25 262.6 269.75C262.6 323.15 264.25 356.9 267.55 371C262.75 372.8 255.1 373.7 244.6 373.7C238 373.7 229.15 372.8 218.05 371C206.65 350.3 190.15 321.2 168.55 283.7C146.95 245.9 127.75 213.2 110.95 185.6C110.05 212 109.6 239.75 109.6 268.85C109.6 322.85 111.25 356.9 114.55 371C109.15 372.8 103.3 373.7 97 373.7Z" fill="black"/>
</svg>
